<?xml version="1.0" encoding="utf-8" ?><svg xmlns="http://www.w3.org/2000/svg" xmlns:xlink="http://www.w3.org/1999/xlink" width="100" height="100" viewBox="0 0 100 100"><clipPath id="cl_3"><rect x="0.0001335144" y="3.0517578e-05" width="100" height="100"/></clipPath><g clip-path="url(#cl_3)"><path fill="#13616B" transform="matrix(0.122249 0 0 0.129032 -42.4204 3.05176e-05)" d="M1087.88 38.5092C1087.22 38.5964 1086.54 38.6851 1085.84 38.761L948.473 51.2399C933.503 52.5232 889.439 55.1906 877.706 57.9643C893.557 74.7703 918.228 102.926 933.894 117.771C833.469 210.071 733.718 303.115 634.673 396.897C627.08 402.886 611.838 410.835 602.886 415.894L552.761 444.429L474.585 489.195C461.266 496.898 443.797 507.701 430.391 514.603L430.457 702.379C430.438 704.787 430.151 710.708 429.819 717.568C429.184 730.666 428.384 747.186 428.968 749.198C429.819 749.593 430.064 749.766 430.307 749.765C430.592 749.764 430.876 749.524 432.13 749.121C437.409 746.649 469.219 723.422 476.682 718.311C515.65 692.011 554.477 665.5 593.152 638.78C592.49 603.267 592.381 567.747 592.837 532.231L708.514 532.096C713.927 532.092 719.543 532.122 725.253 532.154C741.453 532.242 758.403 532.335 773.577 531.652C786.212 520.966 810.862 494.212 823.855 481.014L905.17 399.641L904.257 384.002C903.725 362.295 903.671 340.578 904.094 318.868C904.122 316.459 904.177 313.765 904.236 310.921C904.433 301.386 904.664 290.174 903.986 282.446C910.971 277.371 919.966 267.967 927.06 262.224C951.178 242.706 979.804 212.953 1004.02 195.005C1009.64 202.539 1023.49 216.625 1030.35 224.039C1038.22 232.523 1052.61 249.657 1060.89 256.467C1062.22 244.271 1071.46 191.105 1080.27 140.394C1089.19 89.0908 1097.67 40.3003 1097.08 38.9834C1094.09 37.6983 1091.12 38.0862 1087.88 38.5092Z"/><path fill="#A6CC3E" transform="matrix(0.122249 0 0 0.129032 -42.4204 3.05176e-05)" d="M948.473 51.2399C933.503 52.5232 889.439 55.1906 877.706 57.9643C893.557 74.7703 918.228 102.926 933.894 117.771C833.469 210.071 733.718 303.115 634.673 396.897C639.957 397.089 682.714 372.395 718.588 351.677C740.835 338.829 760.435 327.51 766.809 324.602C775.12 320.812 811.34 288.356 820.943 279.932L899.456 211.167L1031.71 96.3958C1046.72 83.5058 1061.68 70.5398 1076.58 57.4979C1081.73 53.0764 1093.16 45.916 1094.76 40.0356C1092.37 38.4478 1090.92 38.5277 1088.43 38.6651C1087.68 38.7065 1086.84 38.7532 1085.84 38.761L948.473 51.2399Z"/><path fill="#023A49" transform="matrix(0.122249 0 0 0.129032 -42.4204 3.05176e-05)" d="M904.257 384.002L901.77 384.003L901.954 398.095C890.232 394.104 878.543 389.388 866.995 384.872C831.905 420.691 793.36 459.769 757.26 494.492C710.122 494.215 662.984 494.211 615.847 494.477C614.267 494.48 611.425 494.504 607.805 494.536C591.976 494.673 561.269 494.939 556.15 494.093L556.161 618.705C528.698 637.56 497.519 657.974 470.837 677.29C466.97 682.808 463.156 690.165 460.082 696.215C451.13 713.859 440.679 731.337 432.13 749.121C437.409 746.649 469.219 723.422 476.682 718.311C515.65 692.011 554.477 665.5 593.152 638.78C592.49 603.267 592.381 567.747 592.837 532.231L708.514 532.096C713.927 532.092 719.543 532.122 725.253 532.154C741.453 532.242 758.403 532.335 773.577 531.652C786.212 520.966 810.862 494.212 823.855 481.014L905.17 399.641L904.257 384.002Z"/><defs><linearGradient id="gradient_0" gradientUnits="userSpaceOnUse" x1="1481.6" y1="634.25098" x2="1508.67" y2="736.56"><stop offset="0" stop-color="#0C4A53"/><stop offset="1" stop-color="#25969C"/></linearGradient></defs><path fill="url(#gradient_0)" transform="matrix(0.122249 0 0 0.129032 -42.4204 3.05176e-05)" d="M901.422 285.444C894.61 292.554 872.861 312.739 865.821 316.937C852.057 324.352 714.402 398.443 710.883 402.723L719.737 420.012C731.23 443.286 744.256 470.823 756.456 493.568L612.848 493.474C611.818 493.474 609.998 493.466 607.625 493.455C593.554 493.392 560.017 493.241 556.15 494.093C561.269 494.939 591.976 494.673 607.805 494.536C611.425 494.504 614.267 494.48 615.847 494.477C662.984 494.211 710.122 494.215 757.26 494.492C793.36 459.769 831.905 420.691 866.995 384.872C878.543 389.388 890.232 394.104 901.954 398.095L901.77 384.003L904.257 384.002C903.725 362.295 903.671 340.578 904.094 318.868C904.122 316.459 904.177 313.765 904.236 310.921C904.433 301.386 904.664 290.174 903.986 282.446C901.791 284.365 902.063 284.778 901.422 285.444Z"/><defs><linearGradient id="gradient_1" gradientUnits="userSpaceOnUse" x1="1464.49" y1="626.729" x2="1474.05" y2="651.20898"><stop offset="0" stop-color="#022C35"/><stop offset="1" stop-color="#0E4C57"/></linearGradient></defs><path fill="url(#gradient_1)" transform="matrix(0.122249 0 0 0.129032 -42.4204 3.05176e-05)" d="M867.111 325.296C867.077 322.193 867.057 320.4 865.821 316.937C852.057 324.352 714.402 398.443 710.883 402.723L719.737 420.012C721.147 414.226 720.095 413.113 718.912 411.861C717.944 410.837 716.889 409.72 717.021 405.879C723.919 402.17 731.708 399.157 739.085 396.352C768.395 385.213 797.608 373.47 826.777 361.983C837.163 357.894 858.163 354.819 865.506 349.06C867.511 344.141 867.338 336.522 867.197 330.361C867.17 329.176 867.145 328.045 867.136 326.997C867.123 326.383 867.117 325.821 867.111 325.296Z"/><path fill="#023A49" transform="matrix(0.122249 0 0 0.129032 -42.4204 3.05176e-05)" d="M901.422 285.444C894.61 292.554 872.861 312.739 865.821 316.937C867.057 320.4 867.077 322.193 867.111 325.296C867.117 325.821 867.123 326.383 867.136 326.997C868.132 332.624 868.107 334.777 868.047 340.119L868.038 340.898L869.265 340.97C873.308 341.173 878.216 340.185 883.083 339.206C889.334 337.948 895.516 336.704 899.706 338.016C902.074 340.871 901.897 360.911 901.78 374.188C901.743 378.39 901.712 381.914 901.77 384.003L904.257 384.002C903.725 362.295 903.671 340.578 904.094 318.868C904.122 316.459 904.177 313.765 904.236 310.921C904.433 301.386 904.664 290.174 903.986 282.446C901.791 284.365 902.063 284.778 901.422 285.444Z"/><path fill="#FEFEFD" transform="matrix(0.122249 0 0 0.129032 -42.4204 3.05176e-05)" d="M661.007 429.929C623.245 451.568 584.016 472.51 546.666 494.665C544.507 499.965 537.624 516.206 528.829 536.959C506.163 590.441 470.798 673.891 470.837 677.29C497.519 657.974 528.698 637.56 556.161 618.705L556.15 494.093C560.017 493.241 593.554 493.392 607.625 493.455C609.998 493.466 611.818 493.474 612.848 493.474L756.456 493.568C744.256 470.823 731.23 443.286 719.737 420.012L710.883 402.723C704.81 404.769 668.492 425.638 661.007 429.929Z"/><path fill="#FEFEFD" transform="matrix(0.122249 0 0 0.129032 -42.4204 3.05176e-05)" d="M704.516 57.1442C653.402 57.3655 602.278 57.2885 551.164 56.9121C530.056 74.0218 501.017 106.627 480.549 126.11C469.273 136.847 439.441 165.524 431.076 176.19C430.673 209.44 430.883 242.922 431.094 276.409C431.292 308.012 431.49 339.619 431.174 371.04C431.07 381.617 431.175 392.451 431.28 403.37C431.507 426.836 431.737 450.694 429.913 473.236C442.472 467.32 457.453 459.22 469.447 452.138C476.15 447.591 485.84 442.064 492.934 437.736L555.955 401.746C567.601 395.214 581.441 387.013 593.38 381.584C592.384 344.882 592.689 305.881 592.988 267.73C593.109 252.229 593.229 236.869 593.261 221.86C601.702 221.408 612.613 221.525 622.641 221.633C626.938 221.679 631.073 221.723 634.782 221.72C657.683 221.578 680.573 221.644 703.474 221.921C710.676 228.217 736.391 253.888 742.529 256.003C748.015 252.834 763.572 237.176 769.101 231.921L788.754 213.549C804.126 199.713 819.042 185.028 834.382 171.021C843.008 162.548 852.1 154.945 860.65 146.142C856.663 140.342 840.009 123.69 834.382 118.081C814.251 98.0143 793.719 76.7847 773.197 57.1865C759.795 56.3583 741.706 56.6449 725.111 56.9078C717.776 57.024 710.734 57.1356 704.516 57.1442Z"/><path fill="#1A7D83" transform="matrix(0.122249 0 0 0.129032 -42.4204 3.05176e-05)" d="M704.516 57.1442C653.402 57.3655 602.278 57.2885 551.164 56.9121C530.056 74.0218 501.017 106.627 480.549 126.11C469.273 136.847 439.441 165.524 431.076 176.19C430.673 209.44 430.883 242.922 431.094 276.409C431.292 308.012 431.49 339.619 431.174 371.04C431.07 381.617 431.175 392.451 431.28 403.37C431.507 426.836 431.737 450.694 429.913 473.236C442.472 467.32 457.453 459.22 469.447 452.138C468.557 432.934 468.777 409.628 468.984 387.808C469.07 378.726 469.153 369.902 469.153 361.737L469.219 191.29L564.233 95.6604L757.651 95.6549C744.832 124.544 732.317 154.655 719.063 183.167C728.656 193.011 759.531 224.669 769.101 231.921L788.754 213.549C804.126 199.713 819.042 185.028 834.382 171.021C843.008 162.548 852.1 154.945 860.65 146.142C856.663 140.342 840.009 123.69 834.382 118.081C814.251 98.0143 793.719 76.7847 773.197 57.1865C759.795 56.3583 741.706 56.6449 725.111 56.9078C717.776 57.024 710.734 57.1356 704.516 57.1442Z"/><path fill="#13616B" transform="matrix(0.122249 0 0 0.129032 -42.4204 3.05176e-05)" d="M834.382 118.081C814.251 98.0143 793.719 76.7847 773.197 57.1865C772.161 59.8109 770.743 62.9525 769.204 66.3623C763.735 78.4757 756.739 93.9732 759.943 101.683L761.193 100.469C776.554 114.76 790.601 128.676 805.321 143.541C811.709 149.994 828.103 166.986 834.382 171.021C843.008 162.548 852.1 154.945 860.65 146.142C856.663 140.342 840.009 123.69 834.382 118.081Z"/><path fill="#023A49" transform="matrix(0.122249 0 0 0.129032 -42.4204 3.05176e-05)" d="M761.193 100.469L759.943 101.683C764.604 119.453 788.732 199.964 788.754 213.549C804.126 199.713 819.042 185.028 834.382 171.021C828.103 166.986 811.709 149.994 805.321 143.541C790.601 128.676 776.554 114.76 761.193 100.469Z"/><path fill="#023A49" transform="matrix(0.122249 0 0 0.129032 -42.4204 3.05176e-05)" d="M555.955 184.266L555.238 188.309C556.871 204.796 556.387 243.13 556.088 266.855C556.039 270.742 555.995 274.237 555.966 277.18C555.796 293.52 555.987 310.828 556.18 328.267C556.456 353.313 556.736 378.631 555.955 401.746C567.601 395.214 581.441 387.013 593.38 381.584C592.384 344.882 592.689 305.881 592.988 267.73C593.109 252.229 593.229 236.869 593.261 221.86C601.702 221.408 612.613 221.525 622.641 221.633C626.938 221.679 631.073 221.723 634.782 221.72C657.683 221.578 680.573 221.644 703.474 221.921C710.676 228.217 736.391 253.888 742.529 256.003C748.015 252.834 763.572 237.176 769.101 231.921C759.531 224.669 728.656 193.011 719.063 183.167C716.008 183.165 709.339 183.118 700.362 183.056C656.861 182.751 559.17 182.068 555.955 184.266Z"/><path fill="#1A7D83" transform="matrix(0.122249 0 0 0.129032 -42.4204 3.05176e-05)" d="M510.283 367.974C504.852 390.15 499.105 415.94 492.934 437.736L555.955 401.746C556.736 378.631 556.456 353.313 556.18 328.267C555.987 310.828 555.796 293.52 555.966 277.18C555.995 274.237 556.039 270.742 556.088 266.855C556.387 243.13 556.871 204.796 555.238 188.309C548.1 212.074 542.027 238.767 536.172 262.946L510.283 367.974Z"/></g></svg>